<?xml version="1.0" encoding="UTF-8" standalone="no"?>
<!DOCTYPE svg PUBLIC "-//W3C//DTD SVG 1.1//EN" "http://www.w3.org/Graphics/SVG/1.1/DTD/svg11.dtd">
<svg width="100%" height="100%" viewBox="0 0 30 18" version="1.1" xmlns="http://www.w3.org/2000/svg" xmlns:xlink="http://www.w3.org/1999/xlink" xml:space="preserve" xmlns:serif="http://www.serif.com/" style="fill-rule:evenodd;clip-rule:evenodd;stroke-linejoin:round;stroke-miterlimit:2;">
    <path d="M30,0L30,18L2,18L2,16L0,16L0,18L-0,0L0,2L2,2L2,0L28,0L28,2L26,2L26,3.999L28,3.999L28,2L30,2L30,0ZM22.033,12.001L23.999,12.001L23.999,14.001L26,14.001L26,16L28,16L28,18L30,18L30,16L28,16L28,14.001L26,14.001L26,12.001L24.033,12.001L24.033,10.001L22.033,10.001L22.033,12.001ZM4,16L2,16L2,14.001L4,14.001L4,16ZM14.001,12.002L18.007,12.002L18.007,14.002L13.809,14.002L13.809,14L12.002,14L12.002,12L14.001,12L14.001,12.002ZM6.001,14.001L4,14.001L4,12.001L6.001,12.001L6.001,14.001ZM8.001,12.001L6.001,12.001L6.001,10.001L8.001,10.001L8.001,12.001ZM18.003,10.001L20.003,10.001L20.003,12L18.003,12L18.003,10.001ZM10.001,11.998L12.001,11.998L12.001,9.999L10.001,9.999L10.001,7.999L8.001,7.999L8.001,9.999L10.001,9.999L10.001,11.998ZM19.999,7.999L21.999,7.999L21.999,9.999L19.999,9.999L19.999,7.999ZM8.001,5.999L6.001,5.999L6.001,7.999L8.001,7.999L8.001,5.999ZM23.999,5.999L23.999,3.999L26,3.999L26,5.999L23.999,5.999L23.999,7.999L21.999,7.999L21.999,5.999L23.999,5.999ZM6.001,3.999L4,3.999L4,5.999L6.001,5.999L6.001,3.999ZM4,2L2,2L2,3.999L4,3.999L4,2Z" style="fill:rgb(20,255,0);"/>
</svg>
